<svg width="337" height="45" viewBox="0 0 337 45" fill="none" xmlns="http://www.w3.org/2000/svg">
<path fill-rule="evenodd" clip-rule="evenodd" d="M140.572 0.078125C140.058 0.078125 139.641 0.49492 139.641 1.00906V43.3588C139.641 43.873 140.058 44.2898 140.572 44.2898C141.086 44.2898 141.503 43.873 141.503 43.3588V1.00906C141.503 0.494921 141.086 0.078125 140.572 0.078125ZM134.986 4.781C134.472 4.781 134.055 5.1978 134.055 5.71194V38.655C134.055 39.1691 134.472 39.5859 134.986 39.5859C135.5 39.5859 135.917 39.1691 135.917 38.655V5.71194C135.917 5.1978 135.5 4.781 134.986 4.781ZM95.8868 10.8957C95.3726 10.8957 94.9558 11.3125 94.9558 11.8267V32.541C94.9558 33.0551 95.3726 33.4719 95.8868 33.4719C96.4009 33.4719 96.8177 33.0551 96.8177 32.541V11.8267C96.8177 11.3125 96.4009 10.8957 95.8868 10.8957ZM89.3701 15.1203C89.3701 14.6061 89.7869 14.1893 90.301 14.1893C90.8152 14.1893 91.232 14.6061 91.232 15.1203V29.2498C91.232 29.764 90.8152 30.1808 90.301 30.1808C89.7869 30.1808 89.3701 29.764 89.3701 29.2498V15.1203ZM0 22.1745C0 21.6604 0.416796 21.2436 0.930939 21.2436C1.44508 21.2436 1.86188 21.6604 1.86188 22.1745V22.194C1.86188 22.7081 1.44508 23.1249 0.930939 23.1249C0.416796 23.1249 0 22.7081 0 22.194V22.1745ZM179.671 20.3041C179.157 20.3041 178.74 20.7209 178.74 21.235V23.6062C178.74 24.1203 179.157 24.5371 179.671 24.5371C180.185 24.5371 180.602 24.1203 180.602 23.6062V21.235C180.602 20.7209 180.185 20.3041 179.671 20.3041ZM5.5856 22.1745C5.5856 21.6604 6.00239 21.2436 6.51654 21.2436C7.03068 21.2436 7.44748 21.6604 7.44748 22.1745V22.194C7.44748 22.7081 7.03068 23.1249 6.51654 23.1249C6.00239 23.1249 5.5856 22.7081 5.5856 22.194V22.1745ZM184.326 18.8811C184.326 18.3669 184.743 17.9501 185.257 17.9501C185.771 17.9501 186.188 18.3669 186.188 18.8811V25.9556C186.188 26.4697 185.771 26.8865 185.257 26.8865C184.743 26.8865 184.326 26.4697 184.326 25.9556V18.8811ZM12.1021 21.2436C11.588 21.2436 11.1712 21.6604 11.1712 22.1745V22.194C11.1712 22.7081 11.588 23.1249 12.1021 23.1249C12.6163 23.1249 13.0331 22.7081 13.0331 22.194V22.1745C13.0331 21.6604 12.6163 21.2436 12.1021 21.2436ZM100.541 15.1203C100.541 14.6061 100.958 14.1893 101.472 14.1893C101.987 14.1893 102.403 14.6061 102.403 15.1203V29.2498C102.403 29.764 101.987 30.1808 101.472 30.1808C100.958 30.1808 100.541 29.764 100.541 29.2498V15.1203ZM190.843 14.1893C190.328 14.1893 189.912 14.6061 189.912 15.1203V29.2498C189.912 29.764 190.328 30.1808 190.843 30.1808C191.357 30.1808 191.773 29.764 191.773 29.2498V15.1203C191.773 14.6061 191.357 14.1893 190.843 14.1893ZM16.757 22.1745C16.757 21.6604 17.1738 21.2436 17.6879 21.2436C18.202 21.2436 18.6188 21.6604 18.6188 22.1745V22.194C18.6188 22.7081 18.202 23.1249 17.6879 23.1249C17.1738 23.1249 16.757 22.7081 16.757 22.194V22.1745ZM107.058 20.3041C106.544 20.3041 106.127 20.7209 106.127 21.235V23.6062C106.127 24.1203 106.544 24.5371 107.058 24.5371C107.572 24.5371 107.989 24.1203 107.989 23.6062V21.235C107.989 20.7209 107.572 20.3041 107.058 20.3041ZM195.497 18.8811C195.497 18.3669 195.914 17.9501 196.428 17.9501C196.942 17.9501 197.359 18.3669 197.359 18.8811V25.9556C197.359 26.4697 196.942 26.8865 196.428 26.8865C195.914 26.8865 195.497 26.4697 195.497 25.9556V18.8811ZM23.2735 21.2436C22.7594 21.2436 22.3426 21.6604 22.3426 22.1745V22.194C22.3426 22.7081 22.7594 23.1249 23.2735 23.1249C23.7876 23.1249 24.2044 22.7081 24.2044 22.194V22.1745C24.2044 21.6604 23.7876 21.2436 23.2735 21.2436ZM111.713 18.4113C111.713 17.8971 112.129 17.4804 112.644 17.4804C113.158 17.4804 113.575 17.8972 113.575 18.4113V25.9562C113.575 26.4703 113.158 26.8871 112.644 26.8871C112.129 26.8871 111.713 26.4703 111.713 25.9562V18.4113ZM202.014 14.1893C201.5 14.1893 201.083 14.6061 201.083 15.1203V29.2498C201.083 29.764 201.5 30.1808 202.014 30.1808C202.528 30.1808 202.945 29.764 202.945 29.2498V15.1203C202.945 14.6061 202.528 14.1893 202.014 14.1893ZM27.9282 21.235C27.9282 20.7209 28.3449 20.3041 28.8591 20.3041C29.3732 20.3041 29.79 20.7209 29.79 21.235V23.6062C29.79 24.1203 29.3732 24.5371 28.8591 24.5371C28.3449 24.5371 27.9282 24.1203 27.9282 23.6062V21.235ZM118.229 14.1893C117.715 14.1893 117.298 14.6061 117.298 15.1203V29.2498C117.298 29.764 117.715 30.1808 118.229 30.1808C118.743 30.1808 119.16 29.764 119.16 29.2498V15.1203C119.16 14.6061 118.743 14.1893 118.229 14.1893ZM206.669 11.8267C206.669 11.3125 207.085 10.8957 207.599 10.8957C208.114 10.8957 208.53 11.3125 208.53 11.8267V32.541C208.53 33.0551 208.114 33.4719 207.599 33.4719C207.085 33.4719 206.669 33.0551 206.669 32.541V11.8267ZM34.4447 17.9501C33.9306 17.9501 33.5138 18.3669 33.5138 18.8811V25.9556C33.5138 26.4697 33.9306 26.8865 34.4447 26.8865C34.9589 26.8865 35.3756 26.4697 35.3756 25.9556V18.8811C35.3756 18.3669 34.9589 17.9501 34.4447 17.9501ZM122.884 15.1203C122.884 14.6061 123.301 14.1893 123.815 14.1893C124.329 14.1893 124.746 14.6061 124.746 15.1203V29.2498C124.746 29.764 124.329 30.1808 123.815 30.1808C123.301 30.1808 122.884 29.764 122.884 29.2498V15.1203ZM213.185 14.1893C212.671 14.1893 212.254 14.6061 212.254 15.1203V29.2498C212.254 29.764 212.671 30.1808 213.185 30.1808C213.699 30.1808 214.116 29.764 214.116 29.2498V15.1203C214.116 14.6061 213.699 14.1893 213.185 14.1893ZM39.0995 21.235C39.0995 20.7209 39.5163 20.3041 40.0305 20.3041C40.5446 20.3041 40.9614 20.7209 40.9614 21.235V23.6062C40.9614 24.1203 40.5446 24.5371 40.0305 24.5371C39.5163 24.5371 39.0995 24.1203 39.0995 23.6062V21.235ZM129.401 14.1893C128.886 14.1893 128.47 14.6061 128.47 15.1203V29.2498C128.47 29.764 128.886 30.1808 129.401 30.1808C129.915 30.1808 130.331 29.764 130.331 29.2498V15.1203C130.331 14.6061 129.915 14.1893 129.401 14.1893ZM217.84 18.4113C217.84 17.8971 218.257 17.4804 218.771 17.4804C219.285 17.4804 219.702 17.8972 219.702 18.4113V25.9562C219.702 26.4703 219.285 26.8871 218.771 26.8871C218.257 26.8871 217.84 26.4703 217.84 25.9562V18.4113ZM269.041 10.8957C268.527 10.8957 268.111 11.3125 268.111 11.8267V32.541C268.111 33.0551 268.527 33.4719 269.041 33.4719C269.556 33.4719 269.972 33.0551 269.972 32.541V11.8267C269.972 11.3125 269.556 10.8957 269.041 10.8957ZM44.6851 21.235C44.6851 20.7209 45.1019 20.3041 45.6161 20.3041C46.1302 20.3041 46.547 20.7209 46.547 21.235V23.6062C46.547 24.1203 46.1302 24.5371 45.6161 24.5371C45.1019 24.5371 44.6851 24.1203 44.6851 23.6062V21.235ZM223.425 18.8811C223.425 18.3669 223.842 17.9501 224.356 17.9501C224.87 17.9501 225.287 18.3669 225.287 18.8811V25.9556C225.287 26.4697 224.87 26.8865 224.356 26.8865C223.842 26.8865 223.425 26.4697 223.425 25.9556V18.8811ZM274.627 14.1893C274.113 14.1893 273.696 14.6061 273.696 15.1203V29.2498C273.696 29.764 274.113 30.1808 274.627 30.1808C275.141 30.1808 275.558 29.764 275.558 29.2498V15.1203C275.558 14.6061 275.141 14.1893 274.627 14.1893ZM50.2707 18.8811C50.2707 18.3669 50.6875 17.9501 51.2017 17.9501C51.7158 17.9501 52.1326 18.3669 52.1326 18.8811V25.9556C52.1326 26.4697 51.7158 26.8865 51.2017 26.8865C50.6875 26.8865 50.2707 26.4697 50.2707 25.9556V18.8811ZM229.011 15.1203C229.011 14.6061 229.428 14.1893 229.942 14.1893C230.456 14.1893 230.873 14.6061 230.873 15.1203V29.2498C230.873 29.764 230.456 30.1808 229.942 30.1808C229.428 30.1808 229.011 29.764 229.011 29.2498V15.1203ZM280.213 14.1893C279.699 14.1893 279.282 14.6061 279.282 15.1203V29.2498C279.282 29.764 279.699 30.1808 280.213 30.1808C280.727 30.1808 281.144 29.764 281.144 29.2498V15.1203C281.144 14.6061 280.727 14.1893 280.213 14.1893ZM55.8563 15.1203C55.8563 14.6061 56.2731 14.1893 56.7873 14.1893C57.3014 14.1893 57.7182 14.6061 57.7182 15.1203V29.2498C57.7182 29.764 57.3014 30.1808 56.7873 30.1808C56.2731 30.1808 55.8563 29.764 55.8563 29.2498V15.1203ZM146.157 14.1893C145.643 14.1893 145.227 14.6061 145.227 15.1203V29.2498C145.227 29.764 145.643 30.1808 146.157 30.1808C146.672 30.1808 147.088 29.764 147.088 29.2498V15.1203C147.088 14.6061 146.672 14.1893 146.157 14.1893ZM234.597 15.1203C234.597 14.6061 235.013 14.1893 235.528 14.1893C236.042 14.1893 236.459 14.6061 236.459 15.1203V29.2498C236.459 29.764 236.042 30.1808 235.528 30.1808C235.013 30.1808 234.597 29.764 234.597 29.2498V15.1203ZM285.798 14.1893C285.284 14.1893 284.867 14.6061 284.867 15.1203V29.2498C284.867 29.764 285.284 30.1808 285.798 30.1808C286.312 30.1808 286.729 29.764 286.729 29.2498V15.1203C286.729 14.6061 286.312 14.1893 285.798 14.1893ZM61.4419 15.1203C61.4419 14.6061 61.8587 14.1893 62.3729 14.1893C62.887 14.1893 63.3038 14.6061 63.3038 15.1203V29.2498C63.3038 29.764 62.887 30.1808 62.3729 30.1808C61.8587 30.1808 61.4419 29.764 61.4419 29.2498V15.1203ZM151.743 7.1325C151.229 7.1325 150.812 7.5493 150.812 8.06344V36.3031C150.812 36.8173 151.229 37.2341 151.743 37.2341C152.257 37.2341 152.674 36.8173 152.674 36.3031V8.06344C152.674 7.5493 152.257 7.1325 151.743 7.1325ZM240.182 11.8267C240.182 11.3125 240.599 10.8957 241.113 10.8957C241.627 10.8957 242.044 11.3125 242.044 11.8267V32.541C242.044 33.0551 241.627 33.4719 241.113 33.4719C240.599 33.4719 240.182 33.0551 240.182 32.541V11.8267ZM291.384 17.4804C290.87 17.4804 290.453 17.8971 290.453 18.4113V25.9562C290.453 26.4703 290.87 26.8871 291.384 26.8871C291.898 26.8871 292.315 26.4703 292.315 25.9562V18.4113C292.315 17.8972 291.898 17.4804 291.384 17.4804ZM67.0277 15.1203C67.0277 14.6061 67.4445 14.1893 67.9586 14.1893C68.4728 14.1893 68.8896 14.6061 68.8896 15.1203V29.2498C68.8896 29.764 68.4728 30.1808 67.9586 30.1808C67.4445 30.1808 67.0277 29.764 67.0277 29.2498V15.1203ZM157.329 14.1893C156.815 14.1893 156.398 14.6061 156.398 15.1203V29.2498C156.398 29.764 156.815 30.1808 157.329 30.1808C157.843 30.1808 158.26 29.764 158.26 29.2498V15.1203C158.26 14.6061 157.843 14.1893 157.329 14.1893ZM245.768 18.8811C245.768 18.3669 246.185 17.9501 246.699 17.9501C247.213 17.9501 247.63 18.3669 247.63 18.8811V25.9556C247.63 26.4697 247.213 26.8865 246.699 26.8865C246.185 26.8865 245.768 26.4697 245.768 25.9556V18.8811ZM296.97 17.4804C296.455 17.4804 296.039 17.8971 296.039 18.4113V25.9562C296.039 26.4703 296.455 26.8871 296.97 26.8871C297.484 26.8871 297.901 26.4703 297.901 25.9562V18.4113C297.901 17.8972 297.484 17.4804 296.97 17.4804ZM318.381 22.1745C318.381 21.6604 318.798 21.2436 319.312 21.2436C319.826 21.2436 320.243 21.6604 320.243 22.1745V22.194C320.243 22.7081 319.826 23.1249 319.312 23.1249C318.798 23.1249 318.381 22.7081 318.381 22.194V22.1745ZM73.5442 14.1893C73.0301 14.1893 72.6133 14.6061 72.6133 15.1203V29.2498C72.6133 29.764 73.0301 30.1808 73.5442 30.1808C74.0584 30.1808 74.4752 29.764 74.4752 29.2498V15.1203C74.4752 14.6061 74.0584 14.1893 73.5442 14.1893ZM161.983 15.1203C161.983 14.6061 162.4 14.1893 162.914 14.1893C163.428 14.1893 163.845 14.6061 163.845 15.1203V29.2498C163.845 29.764 163.428 30.1808 162.914 30.1808C162.4 30.1808 161.983 29.764 161.983 29.2498V15.1203ZM252.285 14.1893C251.77 14.1893 251.354 14.6061 251.354 15.1203V29.2498C251.354 29.764 251.77 30.1808 252.285 30.1808C252.799 30.1808 253.215 29.764 253.215 29.2498V15.1203C253.215 14.6061 252.799 14.1893 252.285 14.1893ZM301.624 18.4113C301.624 17.8971 302.041 17.4804 302.555 17.4804C303.069 17.4804 303.486 17.8972 303.486 18.4113V25.9562C303.486 26.4703 303.069 26.8871 302.555 26.8871C302.041 26.8871 301.624 26.4703 301.624 25.9562V18.4113ZM324.898 21.2436C324.384 21.2436 323.967 21.6604 323.967 22.1745V22.194C323.967 22.7081 324.384 23.1249 324.898 23.1249C325.412 23.1249 325.829 22.7081 325.829 22.194V22.1745C325.829 21.6604 325.412 21.2436 324.898 21.2436ZM78.1989 21.235C78.1989 20.7209 78.6157 20.3041 79.1298 20.3041C79.644 20.3041 80.0608 20.7209 80.0608 21.235V23.6062C80.0608 24.1203 79.644 24.5371 79.1298 24.5371C78.6157 24.5371 78.1989 24.1203 78.1989 23.6062V21.235ZM168.5 4.781C167.986 4.781 167.569 5.1978 167.569 5.71194V38.655C167.569 39.1691 167.986 39.5859 168.5 39.5859C169.014 39.5859 169.431 39.1691 169.431 38.655V5.71194C169.431 5.1978 169.014 4.781 168.5 4.781ZM256.939 18.4113C256.939 17.8971 257.356 17.4804 257.87 17.4804C258.384 17.4804 258.801 17.8972 258.801 18.4113V25.9562C258.801 26.4703 258.384 26.8871 257.87 26.8871C257.356 26.8871 256.939 26.4703 256.939 25.9562V18.4113ZM308.141 21.2436C307.627 21.2436 307.21 21.6604 307.21 22.1745V22.194C307.21 22.7081 307.627 23.1249 308.141 23.1249C308.655 23.1249 309.072 22.7081 309.072 22.194V22.1745C309.072 21.6604 308.655 21.2436 308.141 21.2436ZM329.553 22.1745C329.553 21.6604 329.969 21.2436 330.483 21.2436C330.998 21.2436 331.414 21.6604 331.414 22.1745V22.194C331.414 22.7081 330.998 23.1249 330.483 23.1249C329.969 23.1249 329.553 22.7081 329.553 22.194V22.1745ZM84.7154 20.3041C84.2013 20.3041 83.7845 20.7209 83.7845 21.235V23.6062C83.7845 24.1203 84.2013 24.5371 84.7154 24.5371C85.2296 24.5371 85.6464 24.1203 85.6464 23.6062V21.235C85.6464 20.7209 85.2296 20.3041 84.7154 20.3041ZM173.155 18.8811C173.155 18.3669 173.571 17.9501 174.086 17.9501C174.6 17.9501 175.017 18.3669 175.017 18.8811V25.9556C175.017 26.4697 174.6 26.8865 174.086 26.8865C173.571 26.8865 173.155 26.4697 173.155 25.9556V18.8811ZM263.456 14.1893C262.942 14.1893 262.525 14.6061 262.525 15.1203V29.2498C262.525 29.764 262.942 30.1808 263.456 30.1808C263.97 30.1808 264.387 29.764 264.387 29.2498V15.1203C264.387 14.6061 263.97 14.1893 263.456 14.1893ZM312.796 22.1745C312.796 21.6604 313.212 21.2436 313.727 21.2436C314.241 21.2436 314.657 21.6604 314.657 22.1745V22.194C314.657 22.7081 314.241 23.1249 313.727 23.1249C313.212 23.1249 312.796 22.7081 312.796 22.194V22.1745ZM336.069 21.2436C335.555 21.2436 335.138 21.6604 335.138 22.1745V22.194C335.138 22.7081 335.555 23.1249 336.069 23.1249C336.583 23.1249 337 22.7081 337 22.194V22.1745C337 21.6604 336.583 21.2436 336.069 21.2436Z" fill="url(#paint0_linear_2_7135)"/>
<defs>
<linearGradient id="paint0_linear_2_7135" x1="6.27711e-07" y1="22.184" x2="337" y2="22.184" gradientUnits="userSpaceOnUse">
<stop stop-color="#F35C70"/>
<stop offset="0.335683" stop-color="#E64157"/>
<stop offset="0.854891" stop-color="#DC2D96"/>
</linearGradient>
</defs>
</svg>
